<svg xmlns="http://www.w3.org/2000/svg"  viewBox="0 0 48 48" width="48px" height="48px" baseProfile="basic"><linearGradient id="PHuWt_TwA6BwhEXz_9RlCa" x1="27.5" x2="27.5" y1="42.73" y2="6.496" gradientUnits="userSpaceOnUse"><stop offset="0" stop-color="#00bc73"/><stop offset=".762" stop-color="#5bdd46"/><stop offset="1" stop-color="#78e837"/></linearGradient><path fill="url(#PHuWt_TwA6BwhEXz_9RlCa)" d="M43,38.867C43,41.149,41.149,43,38.867,43H16.133C13.851,43,12,41.149,12,38.867V16.133	C12,13.851,13.851,12,16.133,12h22.733C41.149,12,43,13.851,43,16.133V38.867z"/><path fill="#02af64" d="M18,12c-3.3,0-6,2.7-6,6v20h20.139C35.376,38,38,35.376,38,32.139V12H18z" opacity=".1"/><path fill="#02af64" d="M17.667,12C14.548,12,12,14.548,12,17.667v20h20.115c3.066,0,5.551-2.485,5.551-5.551 V12H17.667z" opacity=".15"/><path fill="#02af64" d="M17.333,12C14.397,12,12,14.397,12,17.333v20h20.092c2.895,0,5.241-2.346,5.241-5.241 V12H17.333z" opacity=".2"/><path fill="#02af64" d="M17,12c-2.755,0-5,2.245-5,5v20h20.069C34.792,37,37,34.792,37,32.069V12H17z" opacity=".25"/><path fill="#02af64" d="M16.667,12C14.094,12,12,14.094,12,16.667v20h20.046c2.552,0,4.62-2.069,4.62-4.62V12 H16.667z" opacity=".3"/><path fill="#02af64" d="M16.333,12C13.942,12,12,13.942,12,16.333v20h20.023c2.381,0,4.31-1.93,4.31-4.31V12 H16.333z" opacity=".35"/><path fill="#0bc06e" d="M15.245,9C11.796,9,9,11.796,9,15.245V36h20.75c3.438,0,6.25-2.812,6.25-6.25V9H15.245z" opacity=".1"/><path fill="#0bc06e" d="M15.433,9.75c-3.139,0-5.683,2.545-5.683,5.683V36h20.562C33.443,36,36,33.443,36,30.312	V9.75H15.433z" opacity=".2"/><path fill="#0bc06e" d="M15.622,10.5c-2.829,0-5.122,2.293-5.122,5.122V36h20.375C33.698,36,36,33.698,36,30.875	V10.5H15.622z" opacity=".3"/><path fill="#0bc06e" d="M15.811,11.25c-2.519,0-4.561,2.042-4.561,4.561V36h20.188	C33.954,36,36,33.954,36,31.438V11.25H15.811z" opacity=".4"/><path fill="#0bc06e" d="M16,12c-2.209,0-4,1.791-4,4v20h20c2.209,0,4-1.791,4-4V12H16z"/><linearGradient id="PHuWt_TwA6BwhEXz_9RlCb" x1="6.293" x2="33.903" y1="9.318" y2="31.048" gradientUnits="userSpaceOnUse"><stop offset="0" stop-color="#01fff7" stop-opacity=".4"/><stop offset="1" stop-color="#01fff7" stop-opacity=".3"/></linearGradient><path fill="url(#PHuWt_TwA6BwhEXz_9RlCb)" d="M32,5H9C6.791,5,5,6.791,5,9v23	c0,2.209,1.791,4,4,4h23c2.209,0,4-1.791,4-4V9C36,6.791,34.209,5,32,5z"/><linearGradient id="PHuWt_TwA6BwhEXz_9RlCc" x1="36.786" x2="2.546" y1="36.786" y2="2.546" gradientUnits="userSpaceOnUse"><stop offset="0" stop-color="#fff" stop-opacity=".2"/><stop offset="1" stop-color="#278eff" stop-opacity=".2"/></linearGradient><path fill="url(#PHuWt_TwA6BwhEXz_9RlCc)" d="M32,5.5c1.93,0,3.5,1.57,3.5,3.5v23	c0,1.93-1.57,3.5-3.5,3.5H9c-1.93,0-3.5-1.57-3.5-3.5V9c0-1.93,1.57-3.5,3.5-3.5H32L32,5.5z M32,5H9C6.791,5,5,6.791,5,9v23	c0,2.209,1.791,4,4,4h23c2.209,0,4-1.791,4-4V9C36,6.791,34.209,5,32,5L32,5z"/><path fill="#009c76" d="M31.121,13.941c-1.169-1.17-3.073-1.17-4.242,0l-6.816,6.816l-1.941-1.941	c-1.169-1.17-3.073-1.17-4.242,0c-1.17,1.17-1.17,3.072,0,4.242l4.062,4.062C18.508,27.688,19.261,28,20.062,28	s1.555-0.312,2.121-0.879l8.938-8.938C32.291,17.014,32.291,15.111,31.121,13.941z" opacity=".05"/><path fill="#009c76" d="M20.062,27.667c-0.71,0-1.381-0.277-1.885-0.781l-4.063-4.062	c-1.04-1.04-1.04-2.731,0-3.771c1.039-1.04,2.732-1.04,3.771,0l2.177,2.177l7.052-7.052c1.039-1.04,2.732-1.04,3.771,0	c1.04,1.04,1.04,2.731,0,3.771l-8.938,8.938C21.443,27.39,20.773,27.667,20.062,27.667z" opacity=".1"/><path fill="#009c76" d="M20.062,27.333c-0.619,0-1.207-0.241-1.65-0.684l-4.062-4.062	c-0.91-0.91-0.91-2.389,0-3.299c0.91-0.91,2.39-0.91,3.299,0l2.413,2.413l7.288-7.288c0.91-0.91,2.39-0.91,3.299,0	c0.91,0.91,0.91,2.389,0,3.299l-8.938,8.938C21.27,27.092,20.682,27.333,20.062,27.333z" opacity=".15"/><path fill="#009c76" d="M20.062,27c-0.529,0-1.033-0.205-1.414-0.586l-4.062-4.062	c-0.78-0.78-0.78-2.048,0-2.828c0.78-0.78,2.048-0.78,2.828,0l2.648,2.648l7.523-7.523c0.78-0.78,2.048-0.78,2.828,0	c0.78,0.78,0.78,2.048,0,2.828l-8.938,8.938C21.096,26.795,20.591,27,20.062,27z" opacity=".2"/><path fill="#009c76" d="M20.062,26.667c-0.438,0-0.859-0.169-1.178-0.488l-4.063-4.062	c-0.65-0.65-0.65-1.706,0-2.357c0.65-0.65,1.707-0.65,2.357,0l2.884,2.884l7.759-7.759c0.65-0.65,1.707-0.65,2.357,0	c0.65,0.65,0.65,1.706,0,2.357l-8.938,8.938C20.922,26.497,20.5,26.667,20.062,26.667z" opacity=".25"/><path fill="#009c76" d="M20.062,26.333c-0.347,0-0.686-0.133-0.943-0.391l-4.062-4.062	c-0.521-0.521-0.521-1.365,0-1.885c0.52-0.521,1.365-0.521,1.885,0l3.12,3.12l7.995-7.995c0.52-0.521,1.365-0.521,1.885,0	c0.521,0.521,0.521,1.365,0,1.885l-8.938,8.938C20.748,26.2,20.409,26.333,20.062,26.333z" opacity=".3"/><polyline fill="none" stroke="#fff" stroke-linecap="round" stroke-linejoin="round" stroke-miterlimit="10" stroke-width="2" points="16,20.938 20.062,25 29,16.062"/></svg>